<?xml version="1.0" standalone="no"?>
<svg xmlns="http://www.w3.org/2000/svg" version="1.2" baseProfile="tiny" width="143" height="256" viewBox="0 0 143 256">
<rect x="0" y="0" width="143" height="256" id="0" fill="rgb(224,224,229)" fill-opacity="1" />
<polygon points="21,173 1,134 28,120 48,159" id="1" fill="rgb(144,85,62)" fill-opacity="0.501961"/>
<polygon points="85,209 97,236 72,220" id="2" fill="rgb(0,0,0)" fill-opacity="0.501961" />
<polygon points="121,159 99,141 109,129 130,147" id="3" fill="rgb(180,87,29)" fill-opacity="0.501961"/>
<polygon points="94,208 74,230 36,247" id="4" fill="rgb(48,48,68)" fill-opacity="0.501961" />
<polygon points="0,229 30,131 49,256" id="5" fill="rgb(253,251,254)" fill-opacity="0.501961" />
<polygon points="0,142 18,161 12,128" id="6" fill="rgb(64,54,59)" fill-opacity="0.501961" />
<polygon points="100,254 84,216 105,255" id="7" fill="rgb(0,0,0)" fill-opacity="0.501961" />
<polygon points="28,170 28,167 48,172 47,175" id="8" fill="rgb(39,10,16)" fill-opacity="0.501961"/>
<rect x="43" y="55" width="63" height="113" id="9" fill="rgb(238,237,241)" fill-opacity="0.501961" />
<polygon points="41,188 58,228 123,191" id="10" fill="rgb(248,251,255)" fill-opacity="0.501961" />
<polygon points="92,222 71,228 69,221 90,215" id="11" fill="rgb(2,0,15)" fill-opacity="0.501961"/>
<polygon points="64,7 0,0 0,148" id="12" fill="rgb(236,239,245)" fill-opacity="0.501961" />
<polygon points="113,133 108,138 95,122 101,118" id="13" fill="rgb(178,97,60)" fill-opacity="0.501961"/>
<polygon points="52,258 43,216 48,215 56,258" id="14" fill="rgb(153,160,200)" fill-opacity="0.501961"/>
<polygon points="41,256 83,225 102,256" id="15" fill="rgb(255,255,255)" fill-opacity="0.501961" />
<polygon points="26,137 32,131 46,143 40,149" id="16" fill="rgb(172,119,101)" fill-opacity="0.501961"/>
<polygon points="139,-2 163,107 33,134 9,25" id="17" fill="rgb(233,234,240)" fill-opacity="0.501961"/>
<polygon points="33,167 23,166 12,180" id="18" fill="rgb(113,112,129)" fill-opacity="0.501961" />
<polygon points="13,128 29,123 30,126 13,131" id="19" fill="rgb(19,11,16)" fill-opacity="0.501961"/>
<polygon points="78,225 95,252 77,264 60,237" id="20" fill="rgb(246,249,255)" fill-opacity="0.501961"/>
<polygon points="13,141 73,196 45,174" id="21" fill="rgb(132,94,90)" fill-opacity="0.501961" />
<rect x="68" y="149" width="44" height="65" id="22" fill="rgb(235,237,244)" fill-opacity="0.501961" />
<polygon points="3,174 38,256 33,177" id="23" fill="rgb(255,255,255)" fill-opacity="0.501961" />
<rect x="19" y="142" width="15" height="26" id="24" fill="rgb(255,216,185)" fill-opacity="0.501961" />
<polygon points="37,236 54,222 62,231 45,245" id="25" fill="rgb(238,241,255)" fill-opacity="0.501961"/>
<rect x="53" y="239" width="1" height="14" id="26" fill="rgb(43,42,71)" fill-opacity="0.501961" />
<polygon points="97,130 92,118 101,114 106,127" id="27" fill="rgb(214,149,117)" fill-opacity="0.501961"/>
<polygon points="130,142 143,143 142,174 129,173" id="28" fill="rgb(255,255,255)" fill-opacity="0.501961"/>
<rect x="15" y="99" width="28" height="25" id="29" fill="rgb(235,237,244)" fill-opacity="0.501961" />
<polygon points="5,170 4,163 30,158 32,165" id="30" fill="rgb(250,237,234)" fill-opacity="0.501961"/>
<rect x="105" y="147" width="7" height="3" id="31" fill="rgb(19,0,2)" fill-opacity="0.501961" />
<polygon points="0,243 32,256 0,128" id="32" fill="rgb(219,226,238)" fill-opacity="0.501961" />
<rect x="44" y="191" width="4" height="33" id="33" fill="rgb(139,144,182)" fill-opacity="0.501961" />
<polygon points="58,133 90,154 68,187 37,165" id="34" fill="rgb(238,239,245)" fill-opacity="0.501961"/>
<rect x="25" y="127" width="7" height="11" id="35" fill="rgb(255,223,198)" fill-opacity="0.501961" />
<polygon points="78,226 83,225 88,243 84,245" id="36" fill="rgb(255,255,255)" fill-opacity="0.501961"/>
<polygon points="63,232 61,228 75,223 77,226" id="37" fill="rgb(29,27,42)" fill-opacity="0.501961"/>
<polygon points="76,214 67,228 47,215 56,201" id="38" fill="rgb(255,255,255)" fill-opacity="0.501961"/>
<rect x="33" y="155" width="7" height="18" id="39" fill="rgb(169,103,84)" fill-opacity="0.501961" />
<rect x="15" y="169" width="19" height="3" id="40" fill="rgb(65,72,103)" fill-opacity="0.501961" />
<rect x="0" y="0" width="99" height="122" id="41" fill="rgb(230,230,236)" fill-opacity="0.501961" />
<polygon points="11,170 8,159 15,158 18,168" id="42" fill="rgb(239,248,255)" fill-opacity="0.501961"/>
<rect x="89" y="219" width="3" height="12" id="43" fill="rgb(3,0,16)" fill-opacity="0.501961" />
<polygon points="16,139 13,133 22,129 25,135" id="44" fill="rgb(121,93,89)" fill-opacity="0.501961"/>
<polygon points="119,264 94,232 123,210 148,243" id="45" fill="rgb(208,215,230)" fill-opacity="0.501961"/>
<polygon points="12,198 24,171 52,183 40,211" id="46" fill="rgb(254,255,255)" fill-opacity="0.501961"/>
<rect x="26" y="137" width="13" height="4" id="47" fill="rgb(88,67,65)" fill-opacity="0.501961" />
<rect x="98" y="131" width="9" height="9" id="48" fill="rgb(255,239,212)" fill-opacity="0.501961" />
<polygon points="80,213 58,230 60,186" id="49" fill="rgb(255,255,255)" fill-opacity="0.501961" />
<polygon points="123,213 92,221 86,199 117,191" id="50" fill="rgb(225,227,235)" fill-opacity="0.501961"/>
</svg>