<?xml version="1.0" standalone="no"?>
<svg xmlns="http://www.w3.org/2000/svg" version="1.2" baseProfile="tiny" width="256" height="143" viewBox="0 0 256 143">
<rect x="0" y="0" width="256" height="143" id="0" fill="rgb(150,153,146)" fill-opacity="1" />
<polygon points="256,0 256,89 163,96" id="1" fill="rgb(42,32,0)" fill-opacity="0.501961" />
<polygon points="82,0 221,0 151,53" id="2" fill="rgb(255,255,255)" fill-opacity="0.501961" />
<rect x="92" y="90" width="75" height="52" id="3" fill="rgb(255,255,255)" fill-opacity="0.501961" />
<polygon points="119,85 0,96 -2,59 116,48" id="4" fill="rgb(51,48,24)" fill-opacity="0.501961"/>
<polygon points="37,37 6,50 -6,16 24,4" id="5" fill="rgb(255,255,255)" fill-opacity="0.501961"/>
<polygon points="200,89 229,88 232,142 203,143" id="6" fill="rgb(224,226,226)" fill-opacity="0.501961"/>
<rect x="181" y="95" width="19" height="41" id="7" fill="rgb(48,45,17)" fill-opacity="0.501961" />
<polygon points="36,18 70,92 193,83" id="8" fill="rgb(89,86,70)" fill-opacity="0.501961" />
<rect x="164" y="17" width="37" height="56" id="9" fill="rgb(150,184,222)" fill-opacity="0.501961" />
<polygon points="161,115 147,126 134,110 148,98" id="10" fill="rgb(29,69,102)" fill-opacity="0.501961"/>
<polygon points="252,97 216,94 223,-2 259,0" id="11" fill="rgb(81,74,41)" fill-opacity="0.501961"/>
<polygon points="104,102 102,143 187,143" id="12" fill="rgb(255,255,255)" fill-opacity="0.501961" />
<polygon points="84,113 32,114 31,91 83,90" id="13" fill="rgb(201,217,235)" fill-opacity="0.501961"/>
<polygon points="189,0 144,38 112,0" id="14" fill="rgb(255,255,255)" fill-opacity="0.501961" />
<polygon points="25,137 73,115 79,127 31,150" id="15" fill="rgb(18,57,90)" fill-opacity="0.501961"/>
<polygon points="15,47 33,34 56,64 38,77" id="16" fill="rgb(151,166,176)" fill-opacity="0.501961"/>
<rect x="86" y="67" width="8" height="39" id="17" fill="rgb(58,60,42)" fill-opacity="0.501961" />
<polygon points="4,58 41,22 -5,37" id="18" fill="rgb(249,254,255)" fill-opacity="0.501961" />
<polygon points="210,57 194,31 222,14 238,39" id="19" fill="rgb(126,107,80)" fill-opacity="0.501961"/>
<polygon points="174,94 177,116 171,117 168,95" id="20" fill="rgb(24,15,0)" fill-opacity="0.501961"/>
<rect x="109" y="89" width="30" height="53" id="21" fill="rgb(255,252,241)" fill-opacity="0.501961" />
<polygon points="178,143 123,130 177,123" id="22" fill="rgb(255,250,230)" fill-opacity="0.501961" />
<rect x="0" y="105" width="54" height="21" id="23" fill="rgb(184,194,204)" fill-opacity="0.501961" />
<rect x="44" y="2" width="29" height="50" id="24" fill="rgb(110,109,94)" fill-opacity="0.501961" />
<polygon points="125,29 147,50 125,72 104,51" id="25" fill="rgb(171,175,175)" fill-opacity="0.501961"/>
<rect x="74" y="122" width="29" height="20" id="26" fill="rgb(194,201,208)" fill-opacity="0.501961" />
<rect x="153" y="89" width="10" height="20" id="27" fill="rgb(255,255,255)" fill-opacity="0.501961" />
<polygon points="0,0 44,29 0,17" id="28" fill="rgb(157,164,160)" fill-opacity="0.501961" />
<rect x="166" y="78" width="10" height="23" id="29" fill="rgb(59,59,37)" fill-opacity="0.501961" />
<polygon points="183,150 176,124 186,121 194,147" id="30" fill="rgb(99,98,82)" fill-opacity="0.501961"/>
<polygon points="166,21 183,15 202,70 184,76" id="31" fill="rgb(146,172,198)" fill-opacity="0.501961"/>
<polygon points="244,145 202,137 210,93 252,100" id="32" fill="rgb(190,193,194)" fill-opacity="0.501961"/>
<polygon points="130,43 69,4 77,-7 138,31" id="33" fill="rgb(191,195,196)" fill-opacity="0.501961"/>
<polygon points="0,70 89,83 0,101" id="34" fill="rgb(81,81,61)" fill-opacity="0.501961" />
<rect x="142" y="59" width="8" height="36" id="35" fill="rgb(87,70,49)" fill-opacity="0.501961" />
<polygon points="87,117 73,120 72,113 86,110" id="36" fill="rgb(34,68,99)" fill-opacity="0.501961"/>
<polygon points="39,25 22,1 -4,-1" id="37" fill="rgb(222,232,237)" fill-opacity="0.501961" />
<polygon points="227,0 151,58 170,16" id="38" fill="rgb(164,171,173)" fill-opacity="0.501961" />
<polygon points="112,15 94,51 141,86" id="39" fill="rgb(131,132,125)" fill-opacity="0.501961" />
<rect x="4" y="46" width="27" height="17" id="40" fill="rgb(159,176,189)" fill-opacity="0.501961" />
<polygon points="125,0 158,36 176,0" id="41" fill="rgb(255,255,255)" fill-opacity="0.501961" />
<rect x="98" y="0" width="4" height="47" id="42" fill="rgb(216,218,219)" fill-opacity="0.501961" />
<rect x="92" y="93" width="18" height="6" id="43" fill="rgb(76,101,117)" fill-opacity="0.501961" />
<polygon points="170,116 162,120 148,93 157,89" id="44" fill="rgb(255,254,238)" fill-opacity="0.501961"/>
<polygon points="195,142 210,124 219,131 203,150" id="45" fill="rgb(231,230,225)" fill-opacity="0.501961"/>
<rect x="189" y="2" width="3" height="26" id="46" fill="rgb(125,120,103)" fill-opacity="0.501961" />
<polygon points="38,22 31,0 67,59" id="47" fill="rgb(79,75,49)" fill-opacity="0.501961" />
<polygon points="64,89 0,109 3,96" id="48" fill="rgb(107,135,161)" fill-opacity="0.501961" />
<rect x="209" y="4" width="8" height="11" id="49" fill="rgb(255,255,255)" fill-opacity="0.501961" />
<polygon points="240,39 243,58 192,0" id="50" fill="rgb(88,87,65)" fill-opacity="0.501961" />
<polygon points="45,120 62,134 51,148 33,134" id="51" fill="rgb(72,93,105)" fill-opacity="0.501961"/>
<polygon points="41,61 32,55 39,45 48,52" id="52" fill="rgb(106,103,88)" fill-opacity="0.501961"/>
<polygon points="-4,28 2,20 23,38 16,46" id="53" fill="rgb(255,255,255)" fill-opacity="0.501961"/>
<rect x="194" y="105" width="7" height="29" id="54" fill="rgb(72,68,40)" fill-opacity="0.501961" />
<polygon points="70,56 95,53 96,8" id="55" fill="rgb(147,147,141)" fill-opacity="0.501961" />
<polygon points="53,46 51,46 43,5 45,5" id="56" fill="rgb(65,59,28)" fill-opacity="0.501961"/>
<polygon points="251,103 256,133 199,115" id="57" fill="rgb(153,158,159)" fill-opacity="0.501961" />
<rect x="85" y="52" width="10" height="49" id="58" fill="rgb(81,84,74)" fill-opacity="0.501961" />
<polygon points="117,91 125,107 104,118 96,102" id="59" fill="rgb(254,249,234)" fill-opacity="0.501961"/>
<rect x="193" y="131" width="2" height="11" id="60" fill="rgb(252,249,248)" fill-opacity="0.501961" />
<polygon points="131,6 188,15 186,0" id="61" fill="rgb(255,255,255)" fill-opacity="0.501961" />
<rect x="136" y="108" width="18" height="11" id="62" fill="rgb(70,98,122)" fill-opacity="0.501961" />
<rect x="41" y="8" width="3" height="9" id="63" fill="rgb(251,255,255)" fill-opacity="0.501961" />
<rect x="181" y="130" width="3" height="4" id="64" fill="rgb(255,255,255)" fill-opacity="0.501961" />
<polygon points="250,0 256,101 236,0" id="65" fill="rgb(81,77,51)" fill-opacity="0.501961" />
<polygon points="179,74 148,56 166,24 198,42" id="66" fill="rgb(152,178,206)" fill-opacity="0.501961"/>
<rect x="117" y="89" width="23" height="8" id="67" fill="rgb(255,255,255)" fill-opacity="0.501961" />
<polygon points="122,20 123,45 179,3" id="68" fill="rgb(227,231,233)" fill-opacity="0.501961" />
<polygon points="35,21 34,43 28,42 29,20" id="69" fill="rgb(229,235,240)" fill-opacity="0.501961"/>
<rect x="68" y="31" width="3" height="13" id="70" fill="rgb(202,204,204)" fill-opacity="0.501961" />
<rect x="187" y="110" width="1" height="22" id="71" fill="rgb(181,187,191)" fill-opacity="0.501961" />
<polygon points="61,93 75,101 65,119 51,110" id="72" fill="rgb(196,205,209)" fill-opacity="0.501961"/>
<rect x="129" y="76" width="56" height="13" id="73" fill="rgb(89,91,79)" fill-opacity="0.501961" />
<polygon points="82,124 90,116 106,136 98,143" id="74" fill="rgb(200,205,206)" fill-opacity="0.501961"/>
<polygon points="23,17 23,19 9,15 10,12" id="75" fill="rgb(76,75,57)" fill-opacity="0.501961"/>
<polygon points="230,16 237,21 204,66 198,61" id="76" fill="rgb(131,120,99)" fill-opacity="0.501961"/>
<polygon points="46,3 51,16 52,0" id="77" fill="rgb(205,213,219)" fill-opacity="0.501961" />
<rect x="173" y="81" width="3" height="42" id="78" fill="rgb(87,83,55)" fill-opacity="0.501961" />
<rect x="198" y="87" width="26" height="6" id="79" fill="rgb(169,162,128)" fill-opacity="0.501961" />
<polygon points="186,75 197,74 200,115 189,116" id="80" fill="rgb(71,70,49)" fill-opacity="0.501961"/>
<rect x="172" y="15" width="11" height="7" id="81" fill="rgb(130,122,103)" fill-opacity="0.501961" />
<rect x="55" y="48" width="16" height="41" id="82" fill="rgb(86,81,55)" fill-opacity="0.501961" />
<line x1="186" y1="107" x2="189" y2="142" id="83" stroke="rgb(191,195,195)" stroke-width="1" fill="none" stroke-opacity="0.501961" />
<polygon points="190,116 204,130 198,136 184,122" id="84" fill="rgb(88,86,64)" fill-opacity="0.501961"/>
<polygon points="132,107 154,124 151,128 129,111" id="85" fill="rgb(145,156,161)" fill-opacity="0.501961"/>
<polygon points="4,121 63,110 65,121 6,132" id="86" fill="rgb(158,170,179)" fill-opacity="0.501961"/>
<rect x="156" y="89" width="9" height="11" id="87" fill="rgb(255,255,255)" fill-opacity="0.501961" />
<polygon points="89,143 172,123 178,143" id="88" fill="rgb(239,235,225)" fill-opacity="0.501961" />
<rect x="70" y="90" width="14" height="10" id="89" fill="rgb(211,217,220)" fill-opacity="0.501961" />
<rect x="62" y="0" width="2" height="85" id="90" fill="rgb(81,77,53)" fill-opacity="0.501961" />
<rect x="35" y="90" width="23" height="12" id="91" fill="rgb(150,164,171)" fill-opacity="0.501961" />
<rect x="20" y="40" width="13" height="14" id="92" fill="rgb(127,147,161)" fill-opacity="0.501961" />
<rect x="57" y="0" width="3" height="42" id="93" fill="rgb(154,159,158)" fill-opacity="0.501961" />
<line x1="24" y1="0" x2="42" y2="26" id="94" stroke="rgb(41,35,0)" stroke-width="1" fill="none" stroke-opacity="0.501961" />
<rect x="181" y="136" width="12" height="6" id="95" fill="rgb(77,73,47)" fill-opacity="0.501961" />
<rect x="122" y="37" width="22" height="22" id="96" fill="rgb(169,174,175)" fill-opacity="0.501961" />
<rect x="143" y="53" width="5" height="27" id="97" fill="rgb(111,91,66)" fill-opacity="0.501961" />
<polygon points="60,83 111,69 98,92" id="98" fill="rgb(84,84,67)" fill-opacity="0.501961" />
<polygon points="6,61 -3,57 2,37 13,41" id="99" fill="rgb(214,215,212)" fill-opacity="0.501961"/>
<rect x="89" y="94" width="1" height="37" id="100" fill="rgb(179,190,199)" fill-opacity="0.501961" />
<polygon points="40,15 33,0 38,-2 44,13" id="101" fill="rgb(221,228,234)" fill-opacity="0.501961"/>
</svg>