<?xml version="1.0" standalone="no"?>
<svg xmlns="http://www.w3.org/2000/svg" version="1.2" baseProfile="tiny" width="144" height="256" viewBox="0 0 144 256">
<rect x="0" y="0" width="144" height="256" id="0" fill="rgb(150,139,124)" fill-opacity="1" />
<polygon points="142,106 -1,101 1,-3 145,1" id="1" fill="rgb(255,255,255)" fill-opacity="0.501961"/>
<polygon points="7,135 147,153 133,264 -6,247" id="2" fill="rgb(0,0,0)" fill-opacity="0.501961"/>
<polygon points="144,0 106,164 0,0" id="3" fill="rgb(255,255,248)" fill-opacity="0.501961" />
<polygon points="128,256 0,256 0,95" id="4" fill="rgb(0,2,10)" fill-opacity="0.501961" />
<polygon points="141,240 98,234 101,217 144,222" id="5" fill="rgb(255,255,255)" fill-opacity="0.501961"/>
<polygon points="33,141 23,96 63,86 73,132" id="6" fill="rgb(146,61,13)" fill-opacity="0.501961"/>
<polygon points="0,0 0,101 144,45" id="7" fill="rgb(255,255,245)" fill-opacity="0.501961" />
<rect x="81" y="116" width="62" height="45" id="8" fill="rgb(241,152,62)" fill-opacity="0.501961" />
<polygon points="14,224 144,170 144,218" id="9" fill="rgb(22,19,23)" fill-opacity="0.501961" />
<polygon points="103,2 158,23 118,127 63,106" id="10" fill="rgb(255,255,225)" fill-opacity="0.501961"/>
<polygon points="111,142 138,142 114,182" id="11" fill="rgb(62,18,17)" fill-opacity="0.501961" />
<polygon points="22,114 37,0 0,87" id="12" fill="rgb(255,255,240)" fill-opacity="0.501961" />
<polygon points="112,229 116,216 152,229 147,242" id="13" fill="rgb(255,255,231)" fill-opacity="0.501961"/>
<polygon points="118,137 85,139 94,154" id="14" fill="rgb(255,255,255)" fill-opacity="0.501961" />
<polygon points="0,215 0,100 13,107" id="15" fill="rgb(10,9,12)" fill-opacity="0.501961" />
<polygon points="116,127 144,75 144,174" id="16" fill="rgb(207,136,72)" fill-opacity="0.501961" />
<polygon points="0,256 144,252 58,207" id="17" fill="rgb(45,42,41)" fill-opacity="0.501961" />
<polygon points="93,186 85,172 95,166 104,180" id="18" fill="rgb(230,174,133)" fill-opacity="0.501961"/>
<polygon points="92,246 96,251 92,255 87,250" id="19" fill="rgb(255,255,213)" fill-opacity="0.501961"/>
<polygon points="39,86 57,77 110,189" id="20" fill="rgb(212,133,64)" fill-opacity="0.501961" />
<polygon points="100,212 9,256 33,111" id="21" fill="rgb(41,37,39)" fill-opacity="0.501961" />
<polygon points="34,155 26,106 16,124" id="22" fill="rgb(176,119,76)" fill-opacity="0.501961" />
<rect x="47" y="140" width="11" height="6" id="23" fill="rgb(255,238,187)" fill-opacity="0.501961" />
<polygon points="38,158 78,179 83,127" id="24" fill="rgb(64,27,20)" fill-opacity="0.501961" />
<polygon points="23,72 20,129 2,58" id="25" fill="rgb(255,254,227)" fill-opacity="0.501961" />
<polygon points="139,258 131,251 138,243 146,250" id="26" fill="rgb(22,1,0)" fill-opacity="0.501961"/>
<rect x="117" y="134" width="12" height="20" id="27" fill="rgb(109,35,18)" fill-opacity="0.501961" />
<polygon points="70,126 109,125 55,76" id="28" fill="rgb(255,213,151)" fill-opacity="0.501961" />
<rect x="0" y="0" width="143" height="77" id="29" fill="rgb(243,244,229)" fill-opacity="0.501961" />
<polygon points="109,125 111,96 127,97 125,126" id="30" fill="rgb(252,199,128)" fill-opacity="0.501961"/>
<polygon points="12,183 144,187 144,223" id="31" fill="rgb(33,30,33)" fill-opacity="0.501961" />
<polygon points="97,230 96,225 111,222 112,228" id="32" fill="rgb(255,255,239)" fill-opacity="0.501961"/>
<polygon points="40,98 37,99 36,76 39,75" id="33" fill="rgb(255,255,255)" fill-opacity="0.501961"/>
<rect x="132" y="137" width="11" height="9" id="34" fill="rgb(212,221,224)" fill-opacity="0.501961" />
<polygon points="93,227 92,224 121,211 123,214" id="35" fill="rgb(31,17,15)" fill-opacity="0.501961"/>
<polygon points="132,192 134,140 88,168" id="36" fill="rgb(83,54,26)" fill-opacity="0.501961" />
<polygon points="-1,149 6,124 28,131 20,155" id="37" fill="rgb(27,26,30)" fill-opacity="0.501961"/>
<polygon points="99,122 32,57 144,69" id="38" fill="rgb(253,247,228)" fill-opacity="0.501961" />
<rect x="65" y="127" width="48" height="9" id="39" fill="rgb(213,115,56)" fill-opacity="0.501961" />
<rect x="49" y="132" width="3" height="13" id="40" fill="rgb(255,255,198)" fill-opacity="0.501961" />
<rect x="135" y="150" width="8" height="18" id="41" fill="rgb(242,205,51)" fill-opacity="0.501961" />
<rect x="111" y="222" width="19" height="10" id="42" fill="rgb(255,255,234)" fill-opacity="0.501961" />
<polygon points="41,84 53,81 55,148" id="43" fill="rgb(141,90,62)" fill-opacity="0.501961" />
<rect x="59" y="219" width="7" height="11" id="44" fill="rgb(161,110,78)" fill-opacity="0.501961" />
<polygon points="80,224 111,248 133,239" id="45" fill="rgb(91,65,52)" fill-opacity="0.501961" />
<polygon points="7,100 54,256 0,256" id="46" fill="rgb(26,30,34)" fill-opacity="0.501961" />
<polygon points="36,158 30,140 28,125" id="47" fill="rgb(235,196,148)" fill-opacity="0.501961" />
<rect x="20" y="117" width="38" height="12" id="48" fill="rgb(124,81,62)" fill-opacity="0.501961" />
<rect x="130" y="102" width="6" height="33" id="49" fill="rgb(182,84,39)" fill-opacity="0.501961" />
<polygon points="11,85 24,115 19,117 6,87" id="50" fill="rgb(255,255,240)" fill-opacity="0.501961"/>
<polygon points="83,180 108,178 92,165" id="51" fill="rgb(175,146,117)" fill-opacity="0.501961" />
<polygon points="129,218 98,225 147,243" id="52" fill="rgb(255,247,209)" fill-opacity="0.501961" />
<polygon points="53,238 142,208 107,222" id="53" fill="rgb(71,51,41)" fill-opacity="0.501961" />
<polygon points="76,132 87,142 79,151 68,141" id="54" fill="rgb(127,57,37)" fill-opacity="0.501961"/>
<rect x="86" y="136" width="24" height="3" id="55" fill="rgb(248,255,255)" fill-opacity="0.501961" />
<polygon points="78,153 99,153 119,165" id="56" fill="rgb(212,173,5)" fill-opacity="0.501961" />
<polygon points="0,100 144,38 0,0" id="57" fill="rgb(241,240,225)" fill-opacity="0.501961" />
<rect x="53" y="162" width="70" height="10" id="58" fill="rgb(48,37,28)" fill-opacity="0.501961" />
<polygon points="107,155 105,156 104,139 106,138" id="59" fill="rgb(164,99,35)" fill-opacity="0.501961"/>
<rect x="91" y="246" width="3" height="9" id="60" fill="rgb(255,245,186)" fill-opacity="0.501961" />
<line x1="111" y1="236" x2="143" y2="242" id="61" stroke="rgb(134,109,98)" stroke-width="1" fill="none" stroke-opacity="0.501961" />
<polygon points="130,239 84,221 151,246" id="62" fill="rgb(88,59,49)" fill-opacity="0.501961" />
<rect x="135" y="227" width="8" height="5" id="63" fill="rgb(206,146,92)" fill-opacity="0.501961" />
<polygon points="154,220 152,225 126,218 127,213" id="64" fill="rgb(19,18,18)" fill-opacity="0.501961"/>
<polygon points="144,136 144,121 116,134" id="65" fill="rgb(158,88,53)" fill-opacity="0.501961" />
<polygon points="94,169 91,154 95,153 98,168" id="66" fill="rgb(204,160,16)" fill-opacity="0.501961"/>
<polygon points="42,128 31,139 73,215" id="67" fill="rgb(39,34,34)" fill-opacity="0.501961" />
<rect x="137" y="76" width="6" height="44" id="68" fill="rgb(205,169,117)" fill-opacity="0.501961" />
<polygon points="86,88 85,107 67,106 68,87" id="69" fill="rgb(244,229,193)" fill-opacity="0.501961"/>
<polygon points="144,220 103,166 144,170" id="70" fill="rgb(47,40,38)" fill-opacity="0.501961" />
<polygon points="105,239 123,250 144,256" id="71" fill="rgb(132,93,80)" fill-opacity="0.501961" />
<polygon points="92,147 94,139 105,142 103,150" id="72" fill="rgb(250,255,242)" fill-opacity="0.501961"/>
<polygon points="57,93 86,141 73,136" id="73" fill="rgb(203,119,75)" fill-opacity="0.501961" />
<polygon points="18,117 20,125 16,126 14,118" id="74" fill="rgb(255,197,54)" fill-opacity="0.501961"/>
<polygon points="22,98 23,116 21,117 20,99" id="75" fill="rgb(255,255,250)" fill-opacity="0.501961"/>
<polygon points="6,56 46,73 37,94 -2,77" id="76" fill="rgb(248,247,230)" fill-opacity="0.501961"/>
<polygon points="77,258 65,242 88,223 100,239" id="77" fill="rgb(23,29,34)" fill-opacity="0.501961"/>
<polygon points="144,246 57,216 144,256" id="78" fill="rgb(51,41,38)" fill-opacity="0.501961" />
<polygon points="0,109 30,142 0,216" id="79" fill="rgb(38,35,37)" fill-opacity="0.501961" />
<polygon points="99,29 144,39 132,99 87,89" id="80" fill="rgb(247,245,231)" fill-opacity="0.501961"/>
<polygon points="56,145 57,138 59,139 58,146" id="81" fill="rgb(255,251,238)" fill-opacity="0.501961"/>
<rect x="16" y="168" width="66" height="25" id="82" fill="rgb(37,35,36)" fill-opacity="0.501961" />
<polygon points="77,124 114,136 127,117" id="83" fill="rgb(234,176,104)" fill-opacity="0.501961" />
<rect x="81" y="154" width="26" height="6" id="84" fill="rgb(214,171,15)" fill-opacity="0.501961" />
<rect x="95" y="215" width="29" height="4" id="85" fill="rgb(103,77,62)" fill-opacity="0.501961" />
<rect x="32" y="155" width="2" height="7" id="86" fill="rgb(182,123,83)" fill-opacity="0.501961" />
<polygon points="111,181 100,190 96,184 107,175" id="87" fill="rgb(169,109,92)" fill-opacity="0.501961"/>
<rect x="56" y="84" width="9" height="22" id="88" fill="rgb(221,161,99)" fill-opacity="0.501961" />
<polygon points="83,178 82,176 105,174 106,176" id="89" fill="rgb(193,161,162)" fill-opacity="0.501961"/>
<polygon points="122,259 95,252 97,244 124,251" id="90" fill="rgb(16,25,32)" fill-opacity="0.501961"/>
<polygon points="145,144 150,151 133,162 128,155" id="91" fill="rgb(201,166,86)" fill-opacity="0.501961"/>
<polygon points="129,114 119,117 114,96 125,94" id="92" fill="rgb(243,200,141)" fill-opacity="0.501961"/>
<polygon points="70,72 71,104 68,105 67,73" id="93" fill="rgb(251,255,252)" fill-opacity="0.501961"/>
<polygon points="20,122 38,104 48,115 31,133" id="94" fill="rgb(125,91,72)" fill-opacity="0.501961"/>
<line x1="106" y1="232" x2="143" y2="245" id="95" stroke="rgb(241,206,178)" stroke-width="1" fill="none" stroke-opacity="0.501961" />
<polygon points="6,101 11,102 -1,157 -6,156" id="96" fill="rgb(38,31,30)" fill-opacity="0.501961"/>
<rect x="28" y="100" width="1" height="29" id="97" fill="rgb(184,160,149)" fill-opacity="0.501961" />
<rect x="128" y="102" width="3" height="35" id="98" fill="rgb(219,135,76)" fill-opacity="0.501961" />
<rect x="84" y="173" width="10" height="10" id="99" fill="rgb(162,145,159)" fill-opacity="0.501961" />
</svg>